<svg xmlns="http://www.w3.org/2000/svg" x="0px" y="0px" width="48" height="48" viewBox="0 0 40 40">
    <path fill="#bae0bd" d="M20,38.5C9.799,38.5,1.5,30.201,1.5,20S9.799,1.5,20,1.5S38.5,9.799,38.5,20S30.201,38.5,20,38.5z"/>
    <path fill="#5e9c76"
          d="M20,2c9.925,0,18,8.075,18,18s-8.075,18-18,18S2,29.925,2,20S10.075,2,20,2 M20,1 C9.507,1,1,9.507,1,20s8.507,19,19,19s19-8.507,19-19S30.493,1,20,1L20,1z"/>
    <g>
        <path fill="#ffeea3"
              d="M16,30.5c-1.93,0-3.5-1.57-3.5-3.5v-8c0-2.873,1.284-4.45,2.416-5.841 c0.814-1,1.584-1.945,1.584-3.159V9.5c0-1.103,0.897-2,2-2s2,0.897,2,2v1c0,1.299-0.497,3.243-0.958,4.3l-0.306,0.7H28.5 c1.103,0,2,0.897,2,2c0,0.831-0.528,1.582-1.315,1.87l-0.692,0.254l0.491,0.549c0.333,0.373,0.517,0.844,0.517,1.327 c0,0.831-0.528,1.582-1.315,1.87l-0.692,0.254l0.491,0.549c0.333,0.373,0.517,0.844,0.517,1.327c0,0.768-0.454,1.477-1.155,1.806 l-0.575,0.27l0.396,0.496C27.385,28.344,27.5,28.665,27.5,29c0,0.827-0.673,1.5-1.5,1.5H16z"/>
        <path fill="#5e9c76"
              d="M18.5,8C19.327,8,20,8.673,20,9.5v1c0,1.196-0.474,3.086-0.917,4.1L18.473,16H20h1.357H28.5 c0.827,0,1.5,0.673,1.5,1.5c0,0.621-0.397,1.184-0.988,1.401l-1.384,0.507l0.983,1.099C28.789,20.705,29,21.038,29,21.5 c0,0.621-0.397,1.184-0.988,1.401l-1.384,0.507l0.983,1.099C27.789,24.705,28,25.038,28,25.5c0,0.583-0.333,1.102-0.868,1.353 l-1.148,0.539l0.792,0.991C26.878,28.511,27,28.722,27,29c0,0.551-0.449,1-1,1h-4.643h-2.69H16c-1.654,0-3-1.346-3-3v-8 c0-2.695,1.224-4.199,2.304-5.525C16.176,12.404,17,11.392,17,10V9.5C17,8.673,17.673,8,18.5,8 M18.5,7C17.119,7,16,8.119,16,9.5 V10c0,2.521-4,3.821-4,9v8c0,2.209,1.791,4,4,4h2.667h2.69H26c1.105,0,2-0.895,2-2c0-0.472-0.17-0.9-0.443-1.242 C28.407,27.359,29,26.502,29,25.5c0-0.64-0.248-1.218-0.644-1.66C29.313,23.489,30,22.578,30,21.5c0-0.64-0.248-1.218-0.644-1.66 C30.313,19.489,31,18.578,31,17.5c0-1.381-1.119-2.5-2.5-2.5h-7.143H20c0.484-1.109,1-3.13,1-4.5v-1C21,8.119,19.881,7,18.5,7 L18.5,7z"/>
    </g>
</svg>